<?xml version="1.0" encoding="UTF-8"?>
<!DOCTYPE svg PUBLIC "-//W3C//DTD SVG 1.1//EN" "http://www.w3.org/Graphics/SVG/1.1/DTD/svg11.dtd">
<svg xmlns="http://www.w3.org/2000/svg" version="1.1" width="460px" height="460px" viewBox="0 0 460 460"
  style="shape-rendering:geometricPrecision; text-rendering:geometricPrecision; image-rendering:optimizeQuality; fill-rule:evenodd; clip-rule:evenodd"
  xmlns:xlink="http://www.w3.org/1999/xlink">

  <rect width="460" height="460" rx="100" ry="100" fill-opacity="1" fill="url(#grad)" />

  <g>
    <path style="opacity:1" fill="#e10f54"
      d="M 291.5,91.5 C 312.052,95.2811 330.385,103.614 346.5,116.5C 366.468,133.432 379.802,154.432 386.5,179.5C 387.501,185.505 388.501,191.505 389.5,197.5C 390.309,217.453 386.642,236.453 378.5,254.5C 369.838,272.824 357.504,288.158 341.5,300.5C 301.072,327.525 258.739,330.691 214.5,310C 209.046,306.88 204.546,302.713 201,297.5C 198.108,285.013 196.941,272.347 197.5,259.5C 198.665,254.367 199.332,249.034 199.5,243.5C 201.199,243.34 202.866,243.506 204.5,244C 231.169,265.885 261.169,272.218 294.5,263C 307.873,256.625 318.373,247.125 326,234.5C 327.812,229.889 329.312,225.223 330.5,220.5C 334.454,204.448 332.121,189.448 323.5,175.5C 307.395,151.006 284.728,141.506 255.5,147C 239.29,151.597 225.957,160.431 215.5,173.5C 204.945,186.943 197.278,201.943 192.5,218.5C 187.519,237.63 185.519,256.964 186.5,276.5C 186.582,299.799 190.915,322.132 199.5,343.5C 204.388,358.871 211.721,372.871 221.5,385.5C 223.243,388.75 225.577,391.584 228.5,394C 228,394.167 227.5,394.333 227,394.5C 218.123,390.119 209.623,385.119 201.5,379.5C 187.783,368.444 176.116,355.444 166.5,340.5C 159.335,328.636 153.335,316.303 148.5,303.5C 139.495,273.734 137.161,243.401 141.5,212.5C 147.391,184.324 158.724,158.658 175.5,135.5C 181.527,128.14 188.194,121.473 195.5,115.5C 210.022,104.203 226.356,96.5365 244.5,92.5C 260.109,88.8847 275.775,88.5513 291.5,91.5 Z" />
  </g>

  <g>
    <path style="opacity:1" fill="#e10f54"
      d="M 147.5,135.5 C 138.762,148.588 131.762,162.588 126.5,177.5C 129.511,180.012 132.344,182.678 135,185.5C 135.875,186.873 136.375,188.373 136.5,190C 135.56,196.924 134.227,203.757 132.5,210.5C 131.676,219.771 131.01,229.104 130.5,238.5C 129.127,238.657 127.793,238.49 126.5,238C 123.667,235.167 120.833,232.333 118,229.5C 117.333,235.167 117.333,240.833 118,246.5C 118.875,257.616 120.208,268.616 122,279.5C 115.287,271.626 108.787,263.626 102.5,255.5C 93.4058,242.976 85.0725,229.976 77.5,216.5C 67.8986,197.762 60.8986,178.096 56.5,157.5C 56.3691,156.624 56.7025,155.957 57.5,155.5C 85.9313,140.864 116.265,133.697 148.5,134C 147.944,134.383 147.611,134.883 147.5,135.5 Z" />
  </g>

  <defs>
    <linearGradient id="grad" x1="0%" y1="0%" x2="0%" y2="100%">
      <stop offset="0%" stop-color="#5e384a" />
      <stop offset="100%" stop-color="#1b2231" />
    </linearGradient>
  </defs>
</svg>