<?xml version="1.0" encoding="utf-8"?>
<svg width="800" height="800" viewBox="0 0 32 32" xmlns="http://www.w3.org/2000/svg">
  <path fill-rule="evenodd" clip-rule="evenodd"
    d="M 24.7 11.2 C 25.3 8.9 26 4.8 23.5 3.4 C 21 2 17.7 4.7 16 6.3 C 14.3 4.7 11 2 8.5 3.4 C 6 4.8 6.7 8.9 7.3 11.1 C 5 11.8 1 13.2 1 16 C 1 18.8 5 20.3 7.3 20.9 C 6.7 23.2 6 27.2 8.5 28.6 C 11 30 14.3 27.4 16.1 25.8 C 17.8 27.4 21 30 23.5 28.6 C 26 27.2 25.3 23.1 24.8 20.9 C 27 20.2 31 18.8 31 16 C 31 13.2 27 11.8 24.7 11.2 Z M 24.4 19.7 C 24 18.5 23.5 17.3 22.9 16 C 23.5 14.7 24 13.5 24.4 12.4 C 26 12.8 29.7 13.9 29.7 16 C 29.7 18.1 26.2 19.2 24.4 19.7 Z M 22.9 27.5 C 21 28.6 18.2 26.1 16.9 24.9 C 17.8 24 18.6 22.9 19.5 21.8 C 20.9 21.7 22.3 21.5 23.5 21.2 C 23.9 22.8 24.7 26.5 22.9 27.5 Z M 9.1 27.5 C 7.3 26.5 8.1 22.9 8.5 21.2 C 9.8 21.5 11.1 21.7 12.6 21.8 C 13.4 22.9 14.3 24 15.2 24.9 C 14.1 25.9 11 28.6 9.1 27.5 Z M 2.3 16 C 2.3 13.9 5.9 12.8 7.7 12.3 C 8 13.5 8.5 14.8 9.1 16 C 8.5 17.3 8 18.5 7.6 19.7 C 6 19.3 2.3 18.1 2.3 16 Z M 9.1 4.5 C 11 3.5 13.9 6 15.1 7.2 C 14.2 8.1 13.4 9.1 12.6 10.2 C 11.1 10.4 9.8 10.6 8.6 10.8 C 8.1 9 7.2 5.6 9.1 4.5 Z M 20.4 11.6 C 21.3 11.7 22.3 11.8 23.1 12 C 22.9 12.8 22.5 13.7 22.2 14.5 C 21.6 13.5 21 12.5 20.4 11.6 Z M 16 8 C 16.6 8.7 17.2 9.4 17.8 10.1 C 16.6 10.1 15.4 10.1 14.2 10.1 C 14.8 9.4 15.4 8.7 16 8 Z M 9.9 14.5 C 9.5 13.7 9.2 12.8 8.9 12 C 9.8 11.8 10.7 11.7 11.6 11.6 C 11 12.5 10.4 13.5 9.9 14.5 Z M 11.7 20.5 C 10.7 20.4 9.7 20.2 8.9 20 C 9.2 19.2 9.5 18.3 9.9 17.5 C 10.4 18.5 11 19.5 11.7 20.5 Z M 16 24 C 15.4 23.4 14.8 22.7 14.2 21.9 C 15.4 21.9 16.6 21.9 17.8 21.9 C 17.2 22.7 16.6 23.4 16 24 Z M 22.2 17.4 C 22.6 18.3 22.9 19.2 23.2 20 C 22.3 20.2 21.4 20.3 20.4 20.4 C 21 19.5 21.6 18.5 22.2 17.4 Z M 18.7 20.6 C 16.9 20.7 15.1 20.7 13.3 20.6 C 12.3 19.1 11.3 17.6 10.5 16 C 11.3 14.4 12.2 12.9 13.3 11.4 C 15.1 11.3 16.9 11.3 18.7 11.4 C 19.8 12.9 20.7 14.4 21.5 16 C 20.7 17.6 19.8 19.1 18.7 20.6 Z M 22.8 4.5 C 24.7 5.5 23.9 9.2 23.5 10.8 C 22.2 10.6 20.9 10.4 19.4 10.2 C 18.6 9.1 17.8 8.1 16.9 7.2 C 18.2 6 21 3.4 22.8 4.5 Z"
    fill="#3497da" />
  <g transform="matrix(0.004,0,0,-0.0038,0.5,29.5)">
    <path
      d="M 3420 4483 c-256 -123 -496 -237 -535 -253 c-123 -50 -265 -119 -265 -129 c0 -10 118 -69 150 -76 c8 -2 92 -40 185 -85 c94 -45 197 -95 230 -110 c33 -15 152 -73 265 -127 c113 -55 259 -125 325 -157 l120 -57 l220 106 c121 59 254 123 295 142 c41 20 166 80 277 134 c111 53 204 94 207 91 c3 -3 6 -116 6 -251 c0 -234 -1 -247 -20 -264 c-24 -20 -26 -64 -4 -88 c14 -16 12 -26 -29 -125 l-45 -109 l27 -6 c40 -10 211 -10 211 0 c0 15 -59 152 -81 188 c-20 31 -20 35 -5 52 c23 25 21 77 -4 94 c-20 14 -20 23 -18 272 c3 217 5 259 18 265 c8 4 60 28 115 54 c55 26 100 51 100 56 c0 9 -298 156 -340 167 c-11 3 -99 44 -195 90 c-96 47 -240 116 -320 153 c-80 37 -205 98 -278 134 c-73 36 -136 66 -140 65 c-4 0 -216 -102 -472 -226z" />
    <path
      d="M 3200 3537 c0 -270 4 -282 90 -360 c191 -172 606 -236 940 -146 c116 32 231 92 293 152 c83 81 88 101 85 364 l-3 222 l-349 -168 l-349 -169 l-61 28 c-34 15 -193 91 -353 168 l-293 140 l0 -231z" />
  </g>
</svg>