<?xml version="1.0" encoding="UTF-8"?>
<!DOCTYPE svg PUBLIC "-//W3C//DTD SVG 1.1//EN" "http://www.w3.org/Graphics/SVG/1.1/DTD/svg11.dtd">
<svg xmlns="http://www.w3.org/2000/svg" version="1.1" viewBox="0 0 858 820" width="858px" height="820px" style="shape-rendering:geometricPrecision; text-rendering:geometricPrecision; image-rendering:optimizeQuality; fill-rule:evenodd; clip-rule:evenodd" xmlns:xlink="http://www.w3.org/1999/xlink">
<g><path style="opacity:0" fill="#fefefe" d="M -0.5,-0.5 C 285.5,-0.5 571.5,-0.5 857.5,-0.5C 857.5,272.833 857.5,546.167 857.5,819.5C 571.5,819.5 285.5,819.5 -0.5,819.5C -0.5,546.167 -0.5,272.833 -0.5,-0.5 Z"/></g>
<g><path style="opacity:1" fill="#3497da" d="M 267.5,113.5 C 287.062,113.646 305.729,117.812 323.5,126C 346.294,135.888 367.294,148.555 386.5,164C 395.678,171.847 404.845,179.68 414,187.5C 433.617,170.89 454.117,155.39 475.5,141C 489.226,133.804 503.226,127.137 517.5,121C 580.382,100.853 616.882,123.353 627,188.5C 631.118,227.661 628.284,266.327 618.5,304.5C 634.146,310.104 649.813,315.604 665.5,321C 690.634,331.723 713.634,345.723 734.5,363C 773.714,398.46 775.547,435.627 740,474.5C 726.625,487.1 711.791,497.6 695.5,506C 670.874,518.822 645.541,529.655 619.5,538.5C 629.385,576.666 632.219,615.333 628,654.5C 616.613,720.785 579.113,742.619 515.5,720C 500.448,713.974 486.114,706.641 472.5,698C 452.221,685.065 433.054,670.565 415,654.5C 385.294,682.279 351.794,704.445 314.5,721C 250.698,742.535 213.531,720.035 203,653.5C 198.961,614.678 201.794,576.345 211.5,538.5C 196.086,532.963 180.753,527.13 165.5,521C 141.867,510.86 119.867,498.194 99.5,483C 89.5051,474.347 81.0051,464.514 74,453.5C 61.0148,431.313 61.3481,409.313 75,387.5C 85.1667,372 98,359.167 113.5,349C 143.083,329.379 175.083,314.879 209.5,305.5C 209.833,304.833 210.167,304.167 210.5,303.5C 201.435,266.624 198.602,229.291 202,191.5C 203.911,174.517 208.911,158.517 217,143.5C 229.066,125.387 245.899,115.387 267.5,113.5 Z"/></g>
<g><path style="opacity:1" fill="#fefefe" d="M 554.5,144.5 C 571.986,144.476 583.486,152.81 589,169.5C 595.686,191.692 598.019,214.358 596,237.5C 594.625,257.414 591.625,277.081 587,296.5C 557.572,289.234 527.738,284.067 497.5,281C 479.683,256.176 460.016,232.843 438.5,211C 456.236,194.639 475.236,179.973 495.5,167C 513.806,155.496 533.473,147.996 554.5,144.5 Z"/></g>
<g><path style="opacity:1" fill="#fefefe" d="M 266.5,145.5 C 287.312,145.704 306.646,151.204 324.5,162C 348.645,175.646 370.645,192.146 390.5,211.5C 369.401,233.201 350.068,256.367 332.5,281C 302.442,284.01 272.775,289.176 243.5,296.5C 233.861,262.437 231.028,227.77 235,192.5C 236.419,179.907 240.419,168.241 247,157.5C 251.969,150.776 258.469,146.776 266.5,145.5 Z"/></g>
<g><path style="opacity:1" fill="#fefefe" d="M 413.5,233.5 C 427.633,246.732 440.633,261.066 452.5,276.5C 427.174,276.423 401.84,276.589 376.5,277C 388.294,262.04 400.627,247.54 413.5,233.5 Z"/></g>
<g><path style="opacity:1" fill="#fcfcfc" d="M 511.5,361.5 C 484.169,348.671 456.836,335.504 429.5,322C 425.144,320.816 420.811,319.649 416.5,318.5C 413.092,319.367 409.758,320.533 406.5,322C 376.652,336.757 346.652,351.257 316.5,365.5C 326.822,347.344 338.156,329.844 350.5,313C 393.505,308.334 436.505,308.334 479.5,313C 491.175,328.507 501.841,344.674 511.5,361.5 Z"/></g>
<g><path style="opacity:1" fill="#fefefe" d="M 303.5,317.5 C 304.873,317.343 306.207,317.51 307.5,318C 293.629,338.225 281.129,359.391 270,381.5C 262.518,364.055 256.018,346.222 250.5,328C 267.93,322.88 285.597,319.38 303.5,317.5 Z"/></g>
<g><path style="opacity:1" fill="#fefefe" d="M 522.5,318.5 C 541.226,318.814 559.726,321.814 578,327.5C 573.625,345.958 567.625,363.958 560,381.5C 548.985,359.445 536.485,338.445 522.5,318.5 Z"/></g>
<g><path style="opacity:1" fill="#2c3e4f" d="M 416.5,318.5 C 457.409,338.286 498.409,358.12 539.5,378C 525.853,384.966 512.186,391.966 498.5,399C 473.356,409.742 448.689,421.242 424.5,433.5C 422.243,433.962 420.243,434.962 418.5,436.5C 382.844,419.339 347.177,402.172 311.5,385C 309.833,384.333 308.167,384.333 306.5,385C 307.056,385.383 307.389,385.883 307.5,386.5C 306.833,386.5 306.167,386.5 305.5,386.5C 300.896,383.86 296.229,381.194 291.5,378.5C 299.696,373.902 308.029,369.569 316.5,365.5C 346.652,351.257 376.652,336.757 406.5,322C 409.758,320.533 413.092,319.367 416.5,318.5 Z"/></g>
<g><path style="opacity:1" fill="#fefefe" d="M 216.5,336.5 C 217.5,336.5 218.5,336.5 219.5,336.5C 227.557,365.503 237.89,393.67 250.5,421C 238.957,447.961 228.79,475.461 220,503.5C 219.612,504.428 218.945,505.095 218,505.5C 181.177,496.005 148.011,479.505 118.5,456C 108.879,448.055 102.045,438.222 98,426.5C 97.2489,421.428 97.5822,416.428 99,411.5C 108.453,395.713 120.953,382.88 136.5,373C 161.786,357.635 188.453,345.468 216.5,336.5 Z"/></g>
<g><path style="opacity:1" fill="#fefefe" d="M 610.5,336.5 C 642.42,345.128 672.087,358.628 699.5,377C 712.469,386.3 722.969,397.8 731,411.5C 734.353,422.553 732.353,432.553 725,441.5C 710.195,458.487 692.695,471.987 672.5,482C 652.752,492.379 632.085,500.212 610.5,505.5C 601.947,476.507 591.614,448.174 579.5,420.5C 591.799,393.274 602.132,365.274 610.5,336.5 Z"/></g>
<g><path style="opacity:1" fill="#fcfcfc" d="M 305.5,386.5 C 306.167,386.5 306.833,386.5 307.5,386.5C 343.561,403.362 379.561,420.529 415.5,438C 416.833,438.667 418.167,438.667 419.5,438C 421.713,436.384 424.047,435.217 426.5,434.5C 456.54,420.14 486.873,406.14 517.5,392.5C 518.496,408.658 518.83,424.991 518.5,441.5C 516.124,442.512 515.124,444.345 515.5,447C 515.36,449.693 516.36,451.86 518.5,453.5C 515.517,460.793 512.851,468.127 510.5,475.5C 511.833,475.5 513.167,475.5 514.5,475.5C 503.717,494.233 492.05,512.399 479.5,530C 436.495,534.666 393.495,534.666 350.5,530C 326.514,496.555 305.681,461.055 288,423.5C 287.726,420.351 288.392,417.351 290,414.5C 294.941,404.944 300.108,395.61 305.5,386.5 Z"/></g>
<g><path style="opacity:1" fill="#292a2c" d="M 416.5,318.5 C 420.811,319.649 425.144,320.816 429.5,322C 456.836,335.504 484.169,348.671 511.5,361.5C 522.282,367.392 533.282,373.059 544.5,378.5C 537.979,381.593 531.645,384.926 525.5,388.5C 524.504,388.414 523.671,388.748 523,389.5C 522.333,406.833 522.333,424.167 523,441.5C 525.785,442.288 526.951,444.121 526.5,447C 526.424,449.738 525.424,452.072 523.5,454C 523.639,455.301 524.305,456.134 525.5,456.5C 527.792,462.433 530.125,468.433 532.5,474.5C 526.537,475.496 520.537,475.829 514.5,475.5C 513.167,475.5 511.833,475.5 510.5,475.5C 512.851,468.127 515.517,460.793 518.5,453.5C 516.36,451.86 515.36,449.693 515.5,447C 515.124,444.345 516.124,442.512 518.5,441.5C 519.827,424.995 519.827,408.329 518.5,391.5C 517.893,391.624 517.56,391.957 517.5,392.5C 486.873,406.14 456.54,420.14 426.5,434.5C 425.508,434.672 424.842,434.338 424.5,433.5C 448.689,421.242 473.356,409.742 498.5,399C 512.186,391.966 525.853,384.966 539.5,378C 498.409,358.12 457.409,338.286 416.5,318.5 Z"/></g>
<g><path style="opacity:1" fill="#f5f5f5" d="M 525.5,388.5 C 532.106,398.869 538.106,409.702 543.5,421C 537.359,432.782 531.359,444.615 525.5,456.5C 524.305,456.134 523.639,455.301 523.5,454C 525.424,452.072 526.424,449.738 526.5,447C 526.951,444.121 525.785,442.288 523,441.5C 522.333,424.167 522.333,406.833 523,389.5C 523.671,388.748 524.504,388.414 525.5,388.5 Z"/></g>
<g><path style="opacity:1" fill="#838383" d="M 517.5,392.5 C 517.56,391.957 517.893,391.624 518.5,391.5C 519.827,408.329 519.827,424.995 518.5,441.5C 518.83,424.991 518.496,408.658 517.5,392.5 Z"/></g>
<g><path style="opacity:1" fill="#8a8989" d="M 349.5,411.5 C 347.517,425.461 346.85,439.794 347.5,454.5C 346.504,440.01 346.171,425.343 346.5,410.5C 347.791,410.263 348.791,410.596 349.5,411.5 Z"/></g>
<g><path style="opacity:1" fill="#2c3d4f" d="M 349.5,411.5 C 349.369,412.376 349.702,413.043 350.5,413.5C 372.87,424.789 395.37,435.789 418,446.5C 426.284,443.043 434.45,439.21 442.5,435C 441.944,434.617 441.611,434.117 441.5,433.5C 456.614,425.722 471.947,418.389 487.5,411.5C 487.011,427.164 486.511,442.831 486,458.5C 480.719,468.731 472.553,475.565 461.5,479C 454.534,480.825 447.534,482.492 440.5,484C 415.39,487.025 391.057,484.192 367.5,475.5C 359.18,471.511 352.846,465.511 348.5,457.5C 347.596,456.791 347.263,455.791 347.5,454.5C 346.85,439.794 347.517,425.461 349.5,411.5 Z"/></g>
<g><path style="opacity:1" fill="#353636" d="M 424.5,433.5 C 424.842,434.338 425.508,434.672 426.5,434.5C 424.047,435.217 421.713,436.384 419.5,438C 418.167,438.667 416.833,438.667 415.5,438C 379.561,420.529 343.561,403.362 307.5,386.5C 307.389,385.883 307.056,385.383 306.5,385C 308.167,384.333 309.833,384.333 311.5,385C 347.177,402.172 382.844,419.339 418.5,436.5C 420.243,434.962 422.243,433.962 424.5,433.5 Z"/></g>
<g><path style="opacity:1" fill="#313335" d="M 349.5,411.5 C 371.176,422.005 392.842,432.505 414.5,443C 417.257,443.584 419.923,443.25 422.5,442C 428.888,439.261 435.221,436.427 441.5,433.5C 441.611,434.117 441.944,434.617 442.5,435C 434.45,439.21 426.284,443.043 418,446.5C 395.37,435.789 372.87,424.789 350.5,413.5C 349.702,413.043 349.369,412.376 349.5,411.5 Z"/></g>
<g><path style="opacity:1" fill="#fefffe" d="M 559.5,460.5 C 567.03,477.914 573.697,495.747 579.5,514C 560.688,518.963 541.688,522.63 522.5,525C 536.753,504.668 549.086,483.168 559.5,460.5 Z"/></g>
<g><path style="opacity:1" fill="#fefefe" d="M 269.5,461.5 C 281.008,483.348 293.675,504.515 307.5,525C 289.374,522.709 271.374,519.376 253.5,515C 252.572,514.612 251.905,513.945 251.5,513C 257.012,495.628 263.012,478.461 269.5,461.5 Z"/></g>
<g><path style="opacity:1" fill="#2f3235" d="M 451.5,484.5 C 448.848,484.41 446.515,485.076 444.5,486.5C 443.5,486.5 442.5,486.5 441.5,486.5C 427.522,487.388 413.522,487.722 399.5,487.5C 380.332,486.166 364.165,478.499 351,464.5C 349.589,462.35 348.755,460.016 348.5,457.5C 352.846,465.511 359.18,471.511 367.5,475.5C 391.057,484.192 415.39,487.025 440.5,484C 447.534,482.492 454.534,480.825 461.5,479C 472.553,475.565 480.719,468.731 486,458.5C 486.511,442.831 487.011,427.164 487.5,411.5C 487.56,410.957 487.893,410.624 488.5,410.5C 488.833,418.333 489.167,426.167 489.5,434C 493.601,450.704 488.934,464.037 475.5,474C 467.794,478.394 459.794,481.894 451.5,484.5 Z"/></g>
<g><path style="opacity:1" fill="#a9a9a9" d="M 451.5,484.5 C 449.485,485.924 447.152,486.59 444.5,486.5C 446.515,485.076 448.848,484.41 451.5,484.5 Z"/></g>
<g><path style="opacity:1" fill="#686868" d="M 441.5,486.5 C 440.391,487.29 439.058,487.79 437.5,488C 424.66,488.827 411.993,488.66 399.5,487.5C 413.522,487.722 427.522,487.388 441.5,486.5 Z"/></g>
<g><path style="opacity:1" fill="#fefefe" d="M 242.5,546.5 C 272.205,553.284 302.205,558.451 332.5,562C 350.028,585.188 368.862,607.355 389,628.5C 389.982,629.759 390.315,631.092 390,632.5C 364.557,658.138 335.057,677.638 301.5,691C 289.904,695.653 277.904,697.32 265.5,696C 254.288,693.126 246.455,686.293 242,675.5C 234.657,652.73 231.99,629.397 234,605.5C 235.668,585.655 238.502,565.988 242.5,546.5 Z"/></g>
<g><path style="opacity:1" fill="#fefefe" d="M 583.5,546.5 C 585.451,546.227 586.951,546.893 588,548.5C 597.65,585.866 599.316,623.533 593,661.5C 590.924,674.833 584.424,685.333 573.5,693C 564.729,696.585 555.729,697.252 546.5,695C 522.62,688.883 500.62,678.883 480.5,665C 465.958,654.798 452.292,643.465 439.5,631C 460.021,608.829 479.354,585.829 497.5,562C 526.671,558.862 555.338,553.696 583.5,546.5 Z"/></g>
<g><path style="opacity:1" fill="#fefefe" d="M 377.5,566.5 C 402.663,565.337 427.997,565.17 453.5,566C 447.333,573.5 441.167,581 435,588.5C 427.694,594.473 421.027,601.14 415,608.5C 401.522,595.199 389.022,581.199 377.5,566.5 Z"/></g>
</svg>
