<svg viewBox="0 0 318 318" xmlns="http://www.w3.org/2000/svg" xmlns:xlink="http://www.w3.org/1999/xlink" width="2500"
  height="2500">

  <g>
    <path
      d="M 44.3 229.4 c -4.4 0 -7.3 2.4 -7.3 5.5 c 0 2.8 1.7 4.7 5.7 5.8 c 3.6 1 4.3 1.5 4.3 3.1 c 0 1.4 -1.3 2.3 -3.4 2.3 c -1.9 0 -3.7 -0.8 -5.2 -1.9 l -2.3 2.6 c 1.8 1.6 4.3 2.7 7.6 2.7 c 4.4 0 8 -2.1 8 -6 c 0 -3.4 -2.2 -5 -6.1 -6 c -3.2 -0.9 -4 -1.5 -4 -2.7 c 0 -1.2 1 -1.9 2.9 -1.9 c 1.7 0 3.2 0.5 4.8 1.5 l 1.8 -2.7 c -1.8 -1.4 -4 -2.3 -6.8 -2.3 z m 20.4 15.7 l 1.6 3 c -1.4 1 -3.1 1.4 -4.8 1.4 c -3.7 0 -5.7 -2.2 -5.7 -6.2 v -10 h -3 v -3.3 h 3 v -4.2 l 4.6 -0.5 v 4.8 h 4.4 l -0.5 3.3 h -4 v 9.9 c 0 1.9 0.6 2.6 2 2.6 c 0.7 0 1.4 -0.2 2.3 -0.7 z m 19.6 -15.2 l -6.2 19.1 c -1.4 4.5 -4.2 7.3 -9.9 7.8 l -0.5 -3.3 c 3.8 -0.6 5 -1.8 6.1 -4.5 h -1.6 l -6 -19 h 4.9 l 4.1 16 l 4.3 -16 z m 7.3 19.6 a 7.5 7.5 0 0 0 3.1 -0.6 l -1 -3.2 c -0.3 0.1 -0.6 0.2 -1.1 0.2 c -0.8 0 -1.1 -0.4 -1.1 -1.3 v -22.7 l -4.6 0.5 v 22.3 c 0 3.1 1.8 4.9 4.7 4.9 z m 21.7 -10.5 c 0 0.6 -0.1 1.4 -0.1 1.9 h -12 c 0.3 3.9 2.2 5.1 4.7 5.1 c 1.7 0 3.1 -0.5 4.8 -1.7 l 1.9 2.6 c -1.9 1.5 -4.2 2.6 -7.1 2.6 c -5.9 0 -9.1 -3.9 -9.1 -9.9 c 0 -5.8 3.1 -10.2 8.5 -10.2 c 5.3 0 8.4 3.6 8.4 9.6 z m -4.6 -1.1 v -0.2 c 0 -3.1 -1.1 -5 -3.7 -5 c -2.2 0 -3.5 1.4 -3.8 5.2 z m 20.1 -16.1 l 4.6 0.5 V 249 h -4.1 l -0.3 -2.4 c -1.2 1.7 -3 3 -5.4 3 c -4.8 0 -7.2 -4 -7.2 -10 c 0 -5.9 3 -10.1 7.7 -10.1 c 2 0 3.6 0.9 4.8 2.1 z m -3.9 24.2 c 1.7 0 2.8 -0.8 3.9 -2.4 v -8.7 c -1 -1.2 -2.1 -2 -3.6 -2 c -2.4 0 -4 2 -4 6.6 c 0 4.9 1.4 6.6 3.7 6.6 z M 44.4 265.4 c -5.5 0 -8.9 4.1 -8.9 10.2 s 3.4 9.9 8.9 9.9 c 2.4 0 4.4 -0.8 6.2 -2.2 l -2.1 -2.9 c -1.4 0.9 -2.4 1.4 -3.9 1.4 c -2.6 0 -4.3 -1.6 -4.3 -6.2 c 0 -4.6 1.6 -6.5 4.3 -6.5 c 1.4 0 2.6 0.4 3.9 1.4 l 2.1 -2.8 c -1.8 -1.5 -3.7 -2.2 -6.2 -2.2 z m 17.3 0 c 5.6 0 8.9 3.8 8.9 10 c 0 6 -3.3 10.1 -9 10.1 s -9 -3.8 -9 -10.1 c 0 -6 3.3 -10 9 -10 z m 0 3.5 c -2.7 0 -4.1 2.1 -4.1 6.6 c 0 4.6 1.4 6.6 4.1 6.6 s 4.1 -2.1 4.1 -6.6 s -1.4 -6.6 -4.1 -6.6 z m 33.4 -3.5 c -2.5 0 -4.3 1.2 -5.7 3.2 c -0.7 -2 -2.4 -3.2 -4.6 -3.2 c -2.4 0 -4.1 1.1 -5.5 3 l -0.4 -2.5 h -4 V 285 h 4.6 v -13.2 c 1 -1.8 2 -2.9 3.6 -2.9 c 1.1 0 2.1 0.7 2.1 3.1 V 285 h 4.6 v -13.2 c 1 -1.8 2 -2.9 3.6 -2.9 c 1.2 0 2.1 0.7 2.1 3.1 V 285 h 4.6 v -13.8 c 0 -3.6 -2 -5.8 -5 -5.8 z m 20.3 0 c 5 0 7.1 3.9 7.1 10 c 0 5.8 -2.7 10.1 -7.5 10.1 c -1.9 0 -3.6 -0.7 -4.8 -2.1 v 8.9 l -4.6 0.5 v -26.9 h 4 l 0.3 2.3 c 1.5 -2 3.5 -2.9 5.6 -2.9 z m -1.8 16.6 c 2.5 0 4 -1.9 4 -6.6 c 0 -4.8 -1.3 -6.6 -3.6 -6.6 c -1.6 0 -3 1.1 -3.9 2.6 v 8.6 c 0.9 1.3 2.1 2 3.5 2 z m 21.1 -16.6 c 5.6 0 8.9 3.8 8.9 10 c 0 6 -3.3 10.1 -9 10.1 s -9 -3.8 -9 -10.1 c 0 -6 3.3 -10 9 -10 z m 0 3.5 c -2.7 0 -4.1 2.1 -4.1 6.6 c 0 4.6 1.4 6.6 4.1 6.6 s 4.1 -2.1 4.1 -6.6 s -1.4 -6.6 -4.1 -6.6 z m 23.4 -3.5 c -2.4 0 -4.3 1.1 -5.8 3 l -0.4 -2.5 h -4 V 285 h 4.6 v -13.2 c 1.1 -1.8 2.3 -2.9 4 -2.9 c 1.4 0 2.3 0.7 2.3 3.1 V 285 h 4.6 v -13.8 c 0 -3.6 -2 -5.8 -5.4 -5.8 z m 26.4 9.6 c 0 0.6 -0.1 1.4 -0.1 1.9 h -12 c 0.3 3.9 2.2 5.1 4.7 5.1 c 1.7 0 3.1 -0.5 4.8 -1.7 l 1.9 2.6 c -1.9 1.5 -4.2 2.6 -7.1 2.6 c -5.9 0 -9.1 -3.9 -9.1 -9.9 c 0 -5.8 3.1 -10.2 8.5 -10.2 c 5.3 0 8.4 3.6 8.4 9.6 z m -4.6 -1.1 v -0.2 c 0 -3.1 -1.1 -5 -3.7 -5 c -2.2 0 -3.5 1.4 -3.8 5.2 z m 18.9 -8.5 c -2.4 0 -4.3 1.1 -5.8 3 l -0.4 -2.5 h -4 V 285 h 4.6 v -13.2 c 1.1 -1.8 2.3 -2.9 4 -2.9 c 1.4 0 2.3 0.7 2.3 3.1 V 285 h 4.6 v -13.8 c 0 -3.6 -2 -5.8 -5.4 -5.8 z m 20.1 15.7 c -0.8 0.5 -1.5 0.7 -2.3 0.7 c -1.4 0 -2 -0.8 -2 -2.6 v -9.9 h 4 l 0.5 -3.3 h -4.4 v -4.8 l -4.6 0.5 v 4.2 h -3 v 3.3 h 3 v 10 c 0 4.1 2 6.2 5.7 6.2 c 1.7 0 3.4 -0.5 4.8 -1.4 z m 10.2 -15.7 c -4.4 0 -7.3 2.4 -7.3 5.5 c 0 2.8 1.7 4.7 5.7 5.8 c 3.6 1 4.3 1.5 4.3 3.1 c 0 1.4 -1.3 2.3 -3.4 2.3 c -1.9 0 -3.7 -0.8 -5.2 -1.9 l -2.3 2.6 c 1.8 1.6 4.3 2.7 7.6 2.7 c 4.4 0 8 -2.1 8 -6 c 0 -3.4 -2.2 -5 -6.1 -6 c -3.2 -0.9 -4 -1.5 -4 -2.7 c 0 -1.2 1 -1.9 2.9 -1.9 c 1.7 0 3.2 0.5 4.8 1.5 l 1.8 -2.7 c -1.8 -1.4 -4 -2.3 -6.8 -2.3 z M 79.8 87.2 l -36.2 22.5 l 36.2 22.9 l -3.7 4.6 l -37.7 -23.6 v -7.9 l 38.1 -23.6 m 189.3 22.7 v 7.8 l -37.7 23.6 l -3.7 -4.9 l 36.1 -22.6 L 224.4 86 l 3.2 -4.9"
      fill="inherit" />
    <text fill="#000000" font-family="AppleColorEmoji, 'Apple Color Emoji'" font-size="100" letter-spacing=".5"
      transform="translate(22,44)">
      <tspan x="70" y="100">💅</tspan>
    </text>
  </g>
</svg>